<svg xmlns="http://www.w3.org/2000/svg" width="1200" height="675" viewBox="0 0 1200 675"><defs><linearGradient id="g" x1="0" x2="1"><stop offset="0" stop-color="#080C10"/><stop offset="1" stop-color="#1A2F4A"/></linearGradient></defs><rect width="1200" height="675" fill="url(#g)"/><circle cx="1050" cy="80" r="210" fill="none" stroke="#E8A020" stroke-opacity=".13" stroke-width="2"/><circle cx="1050" cy="80" r="130" fill="none" stroke="#E8A020" stroke-opacity=".08" stroke-width="2"/><polygon points="80,75 30,150 80,150" fill="#C9890A"/><polygon points="80,75 130,150 80,150" fill="#E8A020"/><text x="155" y="115" font-family="Inter,Arial" font-size="31" font-weight="900" fill="#fff">TRUE<tspan fill="#E8A020">TRACE</tspan></text><text x="155" y="145" font-family="Inter,Arial" font-size="17" font-weight="700" letter-spacing="4" fill="#7A9AB8">MEASUREMENTS</text><text x="80" y="385" font-family="Inter,Arial" font-size="54" font-weight="900" fill="#fff">ESX vs PDF Roof Reports: Which Do You Need?</text><text x="80" y="440" font-family="Open Sans,Arial" font-size="24" fill="#B0C0CF">ESX / Xactimate</text><rect x="80" y="485" width="90" height="5" fill="#E8A020"/><rect x="525" y="90" width="250" height="250" rx="18" fill="#fff" opacity=".95"/><rect x="555" y="125" width="190" height="16" rx="8" fill="#E8A020"/><path d="M560 205 L625 155 L680 205 L730 170" fill="none" stroke="#1A2F4A" stroke-width="9"/><path d="M560 242 L620 205 L678 245 L730 212" fill="none" stroke="#C9890A" stroke-width="7"/><text x="650" y="305" font-family="Inter,Arial" font-size="34" font-weight="900" text-anchor="middle" fill="#12223A">ESX</text></svg>