<svg xmlns="http://www.w3.org/2000/svg" viewBox="0 0 900 560"><defs><linearGradient id="g" x1="0" y1="0" x2="1" y2="1"><stop stop-color="#f6fbff"/><stop offset="1" stop-color="#dbeaf3"/></linearGradient><filter id="s"><feDropShadow dx="0" dy="14" stdDeviation="16" flood-opacity=".18"/></filter></defs><rect width="900" height="560" rx="28" fill="url(#g)"/><circle cx="175" cy="200" r="92" fill="#fff" filter="url(#s)"/><text x="175" y="214" text-anchor="middle" font-family="Arial" font-size="48" font-weight="900" fill="#2563aa">XML</text><path d="M285 200C360 120 430 120 500 190" fill="none" stroke="#6fb2e6" stroke-width="9" stroke-linecap="round"/><path d="M480 160l30 33-42 10" fill="none" stroke="#6fb2e6" stroke-width="9"/><g filter="url(#s)"><rect x="470" y="105" width="300" height="330" rx="18" fill="#172536"/><rect x="495" y="133" width="250" height="250" rx="6" fill="#fff"/><rect x="510" y="150" width="220" height="34" rx="4" fill="#dceaf5"/><g stroke="#4c6b86" stroke-width="3" fill="#c6d4df"><polygon points="550,300 615,235 690,275 630,340"/><path d="M615 235L630 340M550 300L630 340L690 275" fill="none" stroke="#f0a11b" stroke-width="4"/></g><rect x="565" y="435" width="110" height="18" rx="9" fill="#172536"/></g><text x="120" y="500" font-family="Arial" font-size="24" font-weight="700" fill="#10243b">XML workflow for Symbility-compatible estimating</text></svg>